# xmcd
# 
# Track frame offsets:
#     150
#     13977
#     31930
#     45502
#     61227
#     76287
#     94662
#     110225
#     124872
#     146027
#     162395
#     174832
#     187257
#     210382
#     257500
# 
# Disc length: 3438
# 
# Revision: 1
# Processed by: cddbd v1.5.2PL0 Copyright (c) Steve Scherf et al.
# Submitted via: BonkEnc v1.0.6
# 
DISCID=cd0d6c0f
DTITLE=whiskeytown - pneumonia
DYEAR=2001
DGENRE=americana
TTITLE0=the ballad of carol lynn
TTITLE1=don't wanna know why
TTITLE2=jacksonville skyline
TTITLE3=reasons to lie
TTITLE4=don't be sad
TTITLE5=sit and listen to the rain
TTITLE6=under your breath
TTITLE7=mirror, mirror
TTITLE8=paper moon
TTITLE9=what the devil wanted
TTITLE10=crazy about you
TTITLE11=my hometown
TTITLE12=easy hearts
TTITLE13=bar lights
TTITLE14=hidden track
EXTD=released after the band split and after ryan adams first solo album due to record company infighting
EXTT0=
EXTT1=
EXTT2=
EXTT3=
EXTT4=
EXTT5=
EXTT6=
EXTT7=
EXTT8=
EXTT9=
EXTT10=
EXTT11=
EXTT12=
EXTT13=
EXTT14=
PLAYORDER=
